# xmcd
#
# Track frame offsets:
#	150
#	23633
#	37732
#	46372
#	62013
#	79875
#	99552
#	122577
#	137624
#	153712
#	173156
#
# Disc length: 2612 seconds
#
# Revision: 0
# Processed by: cddbd v1.5.2PL0 Copyright (c) Steve Scherf et al.
# Submitted via: audiograbber 1.83.01
#
DISCID=850a320b
DTITLE=Various Artist - To Elvis: Love Still Burning 
DYEAR=1978
DGENRE=Ballad
TTITLE0=Danny Mirror - I Remember Elvis Presley
TTITLE1=Bobby Fisher - What Will We Do Without You
TTITLE2=Leon Everette - Goodbye King Of Rock and Roll
TTITLE3=Johnny Tollison - Dark Cloud Over Memphis
TTITLE4=Barry Tiffin - Candy Bars For Elvis
TTITLE5=Jim Whittington - Goodbye Elvis
TTITLE6=Ral Donner - The Day The Beat Stopped 
TTITLE7=Frankie Allen - Just A Country Boy
TTITLE8=George Pickard - Elvis The Man From Tupelo
TTITLE9=Michael Morgan and Peter McNey - For Every Star That Rises
TTITLE10=Tony Copeland - The Passing Of A King
EXTD=
EXTT0=
EXTT1=
EXTT2=
EXTT3=
EXTT4=
EXTT5=
EXTT6=
EXTT7=
EXTT8=
EXTT9=
EXTT10=
PLAYORDER=
